# xmcd
# Track frame offsets:
# 150
# 10691
# 25366
# 37461
# 51822
# 65358
#
# Disc length: 1246 seconds
# Revision: 0
# Processed by: cddbd v1.4PL0 Copyright (c) Steve Scherf et al.
# Submitted via: VisiTrax 2.9.5.180 - For more info visit www.synapsa.com
#
DISCID=4c04dc06
DTITLE=Rusty and Tania - Duelling Yodelers
DYEAR=1900
DGENRE=
TTITLE0=Duelling Yodels
TTITLE1=Twylight TWYLA
TTITLE2=Yodelin' Blues
TTITLE3=A Cowboy Life
TTITLE4=Littlest Cowboy
TTITLE5=Roy Rogers: Livin' The Cowboy Dream
EXTD=
EXTT0=
EXTT1=
EXTT2=
EXTT3=
EXTT4=
EXTT5=
PLAYORDER=
